PathFileType	4	(X/Y/Z)	C:/Users/opensim2020/Desktop/walking_exp_matlab/subject06_walking18_straight_03.trc																																																																																																																																											
DataRate	CameraRate	NumFrames	NumMarkers	Units	OrigDataRate	OrigDataStartFrame	OrigNumFrames																																																																																																																																							
100	100	6	47	mm	100	3469	309																																																																																																																																							
Frame#	Time	LFHD			RFHD			LBHD			RBHD			C7			T10			CLAV			STRN			RBAK			LSHO			LUPA			LELB			LFRM			LWRA			LWRB			LFIN			RSHO			RUPA			RELB			RFRM			RWRA			RWRB			RFIN			LASI			RASI			LPSI			RPSI			LTHI			LKNE			LTIB			LANK			LHEE			LTOE			RTHI			RKNE			RTIB			RANK			RHEE			RTOE			*39			*40			*41			*42			*43			*44			*45			*46		
		X1	Y1	Z1	X2	Y2	Z2	X3	Y3	Z3	X4	Y4	Z4	X5	Y5	Z5	X6	Y6	Z6	X7	Y7	Z7	X8	Y8	Z8	X9	Y9	Z9	X10	Y10	Z10	X11	Y11	Z11	X12	Y12	Z12	X13	Y13	Z13	X14	Y14	Z14	X15	Y15	Z15	X16	Y16	Z16	X17	Y17	Z17	X18	Y18	Z18	X19	Y19	Z19	X20	Y20	Z20	X21	Y21	Z21	X22	Y22	Z22	X23	Y23	Z23	X24	Y24	Z24	X25	Y25	Z25	X26	Y26	Z26	X27	Y27	Z27	X28	Y28	Z28	X29	Y29	Z29	X30	Y30	Z30	X31	Y31	Z31	X32	Y32	Z32	X33	Y33	Z33	X34	Y34	Z34	X35	Y35	Z35	X36	Y36	Z36	X37	Y37	Z37	X38	Y38	Z38	X39	Y39	Z39	X40	Y40	Z40	X41	Y41	Z41	X42	Y42	Z42	X43	Y43	Z43	X44	Y44	Z44	X45	Y45	Z45	X46	Y46	Z46	X47	Y47	Z47
																																																																																																																																														
155	1.54	236.05487	1670.93579	1330.6499	230.8372	1659.8241	1461.92334	102.12627	1618.6283	1325.37964	98.64578	1612.88525	1454.71753	96.57236	1460.89587	1380.89355	51.72622	1134.13794	1393.61194	203.79816	1381.52673	1389.8916	239.13805	1205.35229	1388.68713	14.57713	1294.21997	1458.69421	161.72093	1411.81335	1224.47864	179.69315	1209.76758	1151.60657	193.72156	1097.71277	1138.63782	265.0755	964.30389	1131.06812	354.9194	881.73016	1189.90662	305.92593	853.00787	1147.25793	373.01398	793.51575	1157.40344	150.54758	1416.25928	1546.84521	102.52647	1220.07397	1634.39319	106.968	1097.89331	1646.60657	120.04923	978.40723	1664.46375	178.54478	838.6239	1635.87964	124.24046	840.4826	1673.7157	160.78284	764.44061	1677.48743	228.35818	966.42462	1301.49597	215.0248	977.18414	1522.70972	69.2627	1001.5376	1320.85596	65.3715	1002.89441	1488.67273	135.57549	655.4754	1247.77185	116.54244	492.48068	1270.44141	65.2478	240.16344	1288.66553	62.21434	67.91027	1341.14624	22.58034	54.9304	1386.78491	209.31084	39.97536	1349.53784	222.4292	650.63336	1588.50244	268.60284	532.53247	1565.80933	219.22804	275.84119	1568.7074	190.07762	90.78877	1531.1676	149.66231	64.54647	1486.78369	337.7691	55.09245	1530.78479	134.25935	1710.88623	1386.08325	NaN	NaN	NaN	NaN	NaN	NaN	NaN	NaN	NaN	NaN	NaN	NaN	NaN	NaN	NaN	NaN	NaN	NaN	NaN	NaN	NaN
156	1.55	242.1631	1670.62976	1331.28345	237.06252	1659.29504	1462.73535	108.23649	1618.58203	1325.7699	104.56502	1612.59656	1455.11902	102.37317	1460.62158	1381.01501	57.47216	1133.88989	1393.58325	209.53175	1381.17639	1390.02405	244.86169	1204.96729	1388.66748	20.32597	1293.84741	1458.5929	167.61542	1411.71326	1224.66565	186.23405	1209.74097	1151.82825	200.42365	1097.75085	1138.97205	273.61816	965.06647	1131.98181	364.05322	883.89752	1191.44409	315.4548	854.30353	1149.05066	383.22287	795.67877	1159.58313	156.06953	1415.86316	1547.0271	107.67564	1219.58154	1634.21521	111.95232	1097.43567	1646.25806	124.5374	977.88019	1664.09827	182.6671	837.84857	1635.59753	128.2336	839.90417	1673.20703	164.47441	763.71722	1677.06458	233.74026	966.02985	1301.23621	221.01277	976.78802	1522.41504	74.69936	1001.23761	1320.79504	71.44733	1002.60577	1488.50635	139.91972	655.2085	1247.55408	119.64357	492.38446	1270.57349	67.04123	240.20995	1288.57654	62.51475	68.02063	1341.23804	22.67827	55.23438	1386.84595	209.49698	39.99897	1349.45972	227.92999	650.36377	1588.7948	274.80893	532.54126	1565.77783	232.95206	274.61087	1568.43469	210.97818	88.5346	1530.86877	171.56801	61.35308	1486.26233	359.68576	56.40635	1531.11511	140.43069	1710.6521	1386.74255	NaN	NaN	NaN	NaN	NaN	NaN	NaN	NaN	NaN	NaN	NaN	NaN	NaN	NaN	NaN	NaN	NaN	NaN	NaN	NaN	NaN
157	1.56	248.39124	1670.31848	1331.76221	243.0244	1658.70654	1463.41699	114.31876	1618.46094	1326.23376	110.51402	1612.19592	1455.54626	108.14388	1460.30103	1381.25464	63.37778	1133.48376	1393.61572	215.34579	1380.84033	1390.30737	250.57684	1204.59619	1388.75806	26.06813	1293.47375	1458.57922	173.54898	1411.55139	1224.95813	192.70325	1209.7428	1152.0658	207.50143	1097.62927	1139.25964	281.83267	965.7923	1133.44226	373.09537	886.10052	1193.07568	324.92432	855.61462	1150.79224	393.40024	797.87823	1161.82104	161.66823	1415.4386	1547.24634	112.87292	1219.1239	1634.07458	116.83008	1096.93433	1645.94617	129.01547	977.33575	1663.73694	186.81822	837.03223	1635.32568	132.18849	839.34204	1672.73621	168.1373	762.92444	1676.55298	239.34993	965.74976	1301.06689	226.94612	976.39362	1522.11853	80.16125	1000.90106	1320.75769	77.40646	1002.24945	1488.48474	144.18924	654.8866	1247.56287	123.49896	491.95969	1270.45496	68.83028	240.24034	1288.55188	62.81314	68.17407	1341.45923	23.03939	55.43448	1387.09351	209.63129	40.02865	1349.53491	233.75117	650.15594	1589.35107	280.79352	532.35962	1565.72827	246.34398	273.53067	1568.06555	231.56602	86.70176	1530.68018	193.45274	58.62415	1485.64429	381.15454	57.44157	1531.58032	146.57378	1710.35596	1387.42358	NaN	NaN	NaN	NaN	NaN	NaN	NaN	NaN	NaN	NaN	NaN	NaN	NaN	NaN	NaN	NaN	NaN	NaN	NaN	NaN	NaN
158	1.57	254.54556	1669.87231	1332.8374	248.7639	1658.07117	1464.01379	120.41821	1618.26282	1326.73035	116.38049	1611.78271	1456.01099	113.97401	1459.92175	1381.58411	69.10245	1133.11853	1393.88501	221.18231	1380.41199	1390.53748	256.36526	1204.15308	1388.85132	31.85535	1293.04077	1458.70544	179.50999	1411.38953	1225.26001	199.11191	1209.67188	1152.35474	214.24892	1097.53491	1139.61377	289.84601	966.54523	1134.24097	381.96066	888.26996	1194.68762	334.23401	856.96606	1152.56812	403.34647	799.98346	1164.14319	167.36038	1414.93701	1547.56238	118.15581	1218.6073	1634.08875	121.86892	1096.41016	1645.74756	133.57526	976.7428	1663.46106	190.92459	836.15613	1635.01904	136.21742	838.72003	1672.36804	171.87079	762.16333	1676.1355	244.44031	965.151	1300.54382	233.10245	975.88019	1521.7782	85.66797	1000.49353	1320.81396	83.45641	1001.8446	1488.53076	148.65057	654.52747	1247.54236	126.66746	491.8486	1270.60742	70.64308	240.31775	1288.62756	63.15427	68.32331	1341.65564	23.26788	55.71154	1387.25745	209.73744	39.87553	1349.58923	239.02422	649.60248	1589.34021	286.75735	532.13959	1565.67273	259.84064	272.49329	1567.96729	251.98804	85.25797	1530.56799	214.58058	56.91606	1485.27808	402.36459	58.38718	1532.22754	152.70338	1710.02112	1388.11694	NaN	NaN	NaN	NaN	NaN	NaN	NaN	NaN	NaN	NaN	NaN	NaN	NaN	NaN	NaN	NaN	NaN	NaN	NaN	NaN	NaN
159	1.58	260.69769	1669.4801	1333.62219	254.70813	1657.45703	1464.828	126.51384	1617.99707	1327.2168	122.30426	1611.29443	1456.50781	120.00731	1459.4314	1381.91345	74.89439	1132.65137	1394.12817	227.05292	1379.98999	1390.97546	262.16794	1203.72424	1389.01001	37.65331	1292.58557	1458.95532	185.58022	1411.14331	1225.71082	205.5264	1209.59009	1152.72437	220.63135	1097.49231	1140.15552	297.58167	967.12482	1135.41931	390.61987	890.21619	1196.33179	343.43579	858.27307	1154.40051	413.2193	802.14063	1166.52246	173.15807	1414.38867	1547.90845	123.48992	1218.05371	1634.11145	126.83244	1095.79797	1645.57605	138.13666	976.10364	1663.26355	195.12946	835.24182	1634.80591	140.311	838.05133	1672.02124	176.07379	761.4201	1676.09521	249.90959	964.65393	1300.18347	239.38251	975.37659	1521.50281	91.3421	999.99933	1320.92761	89.63647	1001.36255	1488.64844	153.02034	654.1922	1247.64075	130.49022	491.50894	1270.66321	72.41656	240.40283	1288.71179	63.48709	68.48911	1341.89478	23.49574	56.02374	1387.47876	209.82005	39.83818	1349.64087	244.64461	649.12286	1589.49072	292.55484	531.77905	1565.60803	272.95303	271.53973	1567.75952	271.95697	84.13293	1530.46167	235.44739	55.54734	1484.94641	423.04388	59.50928	1533.14636	158.83131	1709.5885	1388.80896	NaN	NaN	NaN	NaN	NaN	NaN	NaN	NaN	NaN	NaN	NaN	NaN	NaN	NaN	NaN	NaN	NaN	NaN	NaN	NaN	NaN
160	1.59	266.8392	1669.11633	1334.15271	260.81708	1656.83289	1465.74805	132.66608	1617.6084	1327.75269	128.20557	1610.73987	1457.00916	126.05097	1458.96167	1382.30334	80.81457	1132.17273	1394.49402	232.95689	1379.43005	1391.38135	268.0817	1203.20093	1389.2002	43.53513	1292.05322	1459.24792	191.53806	1410.8606	1226.17651	211.88641	1209.40222	1153.08789	227.42386	1097.22485	1140.5719	305.41327	967.69916	1136.53088	399.27115	892.17389	1198.02991	352.63181	859.53424	1156.14709	422.84494	804.14832	1168.9718	179.05168	1413.7832	1548.32446	128.86992	1217.45557	1634.23669	131.9476	1095.17834	1645.54883	142.79137	975.39996	1663.12805	199.28821	834.2005	1634.55237	144.44812	837.31274	1671.70068	179.3951	760.38818	1675.37183	255.47946	964.1532	1299.84326	245.78922	974.77795	1521.20813	97.05888	999.44751	1321.10742	95.53098	1000.88818	1488.87183	157.50192	653.80695	1247.81323	133.96257	491.26617	1270.84436	74.19956	240.47104	1288.83569	63.85228	68.64214	1342.10364	23.72178	56.24496	1387.68616	209.95486	39.77677	1349.64673	250.32733	648.49152	1589.62988	298.24817	531.25061	1565.27136	285.60574	270.67847	1567.49719	291.38025	83.34392	1530.37781	256.08667	54.34063	1484.49316	443.39365	60.93246	1534.09192	164.88179	1709.10706	1389.54126	NaN	NaN	NaN	NaN	NaN	NaN	NaN	NaN	NaN	NaN	NaN	NaN	NaN	NaN	NaN	NaN	NaN	NaN	NaN	NaN	NaN
